<?xml version="1.0" encoding="utf-8"?>
<!-- Generator: Adobe Illustrator 16.0.0, SVG Export Plug-In . SVG Version: 6.00 Build 0)  -->
<!DOCTYPE svg PUBLIC "-//W3C//DTD SVG 1.1//EN" "http://www.w3.org/Graphics/SVG/1.1/DTD/svg11.dtd">
<svg version="1.1" id="Layer_1" xmlns="http://www.w3.org/2000/svg" xmlns:xlink="http://www.w3.org/1999/xlink" x="0px" y="0px"
	 width="1000px" height="1000px" viewBox="0 0 1000 1000" enable-background="new 0 0 1000 1000" xml:space="preserve">
<path fill="#0B0B10" d="M0,0v1000h1000V0H0z M500,951.667C250.552,951.667,48.334,749.449,48.334,500S250.552,48.333,500,48.333
	S951.666,250.551,951.666,500S749.448,951.667,500,951.667z"/>
<g>
	<path fill="#0B0B10" d="M738.965,290.22c0,1.244,0,2.489,0,3.733c-0.467,1.803-0.99,3.593-1.396,5.408
		c-14.037,62.976-28.079,125.948-42.084,188.93c-9.686,43.555-19.313,87.122-28.974,130.683
		c-6.259,28.23-12.547,56.453-18.773,84.69c-1.652,7.506-2.023,7.684-8.188,2.813c-0.488-0.387-0.966-0.783-1.451-1.174
		c-16.761-13.402-33.484-26.854-50.29-40.201c-23.624-18.762-47.368-37.37-70.896-56.251c-3.227-2.587-4.903-2.264-7.65,0.508
		c-23.126,23.282-46.393,46.428-69.632,69.595c-4.064,4.052-4.77,3.916-6.902-1.396c-5.451-13.563-10.852-27.146-16.255-40.729
		c-12.418-31.207-24.933-62.377-37.148-93.663c-2.434-6.23-5.96-10.341-12.438-12.637c-14.214-5.036-28.216-10.669-42.294-16.081
		c-21.188-8.146-42.369-16.313-63.553-24.469c0-0.621,0-1.243,0-1.865c7.108-1.878,13.578-5.351,20.314-8.157
		c60.716-25.313,121.438-50.605,182.167-75.891c45.797-19.068,91.607-38.105,137.402-57.176
		c38.476-16.021,76.914-32.13,115.429-48.063C723.796,295.746,731.053,292.103,738.965,290.22z M591.32,419.85
		c-0.249-0.401-0.497-0.802-0.744-1.204c-7.945,4.767-15.877,9.563-23.843,14.298c-52.11,30.981-104.207,61.984-156.385,92.854
		c-3.787,2.24-4.854,4.318-3.124,8.564c9.741,23.893,19.229,47.888,28.854,71.829c0.353,0.873,0.362,2.252,2.248,2.295
		c0.494-1.687,1.061-3.433,1.519-5.204c3.302-12.792,6.993-25.499,9.758-38.407c3.021-14.104,8.02-26.69,20.911-34.696
		c0.26-0.161,0.459-0.419,0.688-0.629c30.292-27.684,60.583-55.371,90.882-83.05C571.818,437.605,581.572,428.732,591.32,419.85z"/>
</g>
</svg>
