<?xml version="1.0" encoding="utf-8"?>
<!-- Generator: Adobe Illustrator 16.0.0, SVG Export Plug-In . SVG Version: 6.00 Build 0)  -->
<!DOCTYPE svg PUBLIC "-//W3C//DTD SVG 1.1//EN" "http://www.w3.org/Graphics/SVG/1.1/DTD/svg11.dtd">
<svg version="1.1" id="Layer_1" xmlns="http://www.w3.org/2000/svg" xmlns:xlink="http://www.w3.org/1999/xlink" x="0px" y="0px"
	 width="1000px" height="1000px" viewBox="0 0 1000 1000" enable-background="new 0 0 1000 1000" xml:space="preserve">
<path fill="#0B0B10" d="M491.345,653.836h30.977c0,0,9.354-1.04,14.144-6.218c4.39-4.761,4.24-13.688,4.24-13.688
	s-0.603-41.809,18.688-47.973c19.023-6.069,43.45,40.409,69.332,58.285c19.57,13.514,34.443,10.552,34.443,10.552l69.21-0.96
	c0,0,36.208-2.256,19.041-30.883c-1.403-2.336-9.993-21.188-51.472-59.898c-43.396-40.518-37.583-33.966,14.688-104.058
	c31.856-42.676,44.585-68.744,40.595-79.896c-3.789-10.646-27.201-7.832-27.201-7.832l-77.936,0.495c0,0-5.775-0.801-10.06,1.787
	c-4.188,2.508-6.885,8.404-6.885,8.404s-12.328,33.032-28.791,61.127c-34.685,59.258-48.558,62.407-54.238,58.71
	c-13.193-8.577-9.898-34.458-9.898-52.842c0-57.444,8.671-81.394-16.862-87.593c-8.47-2.055-14.698-3.416-36.364-3.629
	c-27.828-0.293-51.351,0.08-64.677,6.646c-8.856,4.376-15.716,14.101-11.539,14.662c5.162,0.68,16.821,3.161,22.998,11.619
	c7.991,10.941,7.698,35.486,7.698,35.486s4.604,67.61-10.699,76.017c-10.512,5.764-24.92-6.005-55.854-59.778
	c-15.85-27.548-27.816-57.991-27.816-57.991s-2.307-5.697-6.428-8.739c-4.991-3.695-11.968-4.854-11.968-4.854l-74.053,0.479
	c0,0-11.125,0.307-15.207,5.177c-3.631,4.335-0.297,13.274-0.297,13.274s57.979,136.446,123.643,205.204
	C422.987,657.971,491.345,653.836,491.345,653.836z"/>
<path fill="#0B0B10" d="M-0.01-0.037V999.984h1000.021V-0.037H-0.01z M500,951.648c-249.454,0-451.676-202.223-451.676-451.677
	C48.324,250.52,250.547,48.296,500,48.296s451.676,202.222,451.676,451.676C951.676,749.427,749.453,951.648,500,951.648z"/>
</svg>
