<?xml version="1.0" encoding="utf-8"?>
<!-- Generator: Adobe Illustrator 16.0.0, SVG Export Plug-In . SVG Version: 6.00 Build 0)  -->
<!DOCTYPE svg PUBLIC "-//W3C//DTD SVG 1.1//EN" "http://www.w3.org/Graphics/SVG/1.1/DTD/svg11.dtd">
<svg version="1.1" id="Capa_1" xmlns="http://www.w3.org/2000/svg" xmlns:xlink="http://www.w3.org/1999/xlink" x="0px" y="0px"
	 width="1000px" height="1000px" viewBox="0 0 1000 1000" enable-background="new 0 0 1000 1000" xml:space="preserve">
<g>
	<linearGradient id="SVGID_1_" gradientUnits="userSpaceOnUse" x1="2.440214e-004" y1="500" x2="1000.0002" y2="500">
		<stop  offset="0" style="stop-color:#13C6B9"/>
		<stop  offset="1" style="stop-color:#42D473"/>
	</linearGradient>
	<path fill="url(#SVGID_1_)" d="M944.011,444.114h-23.79V301.169c0-58.449-47.58-105.824-105.824-105.824h-21.944l0.205-53.118
		c0-39.376-31.993-71.37-71.37-71.37H86.751c-47.375,0-86.136,38.146-86.751,85.521c0,0.41,0,0.821,0,1.231v700.164
		c0,39.377,31.993,71.37,71.37,71.37h743.231c58.449,0,105.824-47.58,105.824-105.824v-143.15h23.79
		c30.763,0,55.784-25.021,55.784-55.783V499.897C999.795,469.135,974.774,444.114,944.011,444.114z M86.751,120.078h634.536
		c12.101,0,22.149,9.844,22.149,21.944l-0.205,53.323H86.751c-20.714,0-37.53-16.817-37.53-37.531
		C49.221,137.1,66.037,120.078,86.751,120.078z M871,823.113c0,31.173-25.431,56.604-56.604,56.604H71.165
		c-12.101,0-22.149-9.844-22.149-22.149V235.952c11.484,5.537,24.2,8.614,37.735,8.614h727.646
		c31.173,0,56.604,25.431,56.604,56.604v142.945H703.035c-30.764,0-55.784,25.021-55.784,55.783v124.487
		c0,30.763,25.021,55.783,55.784,55.783H871V823.113L871,823.113z M950.574,624.385c0,3.691-2.871,6.563-6.563,6.563H703.24
		c-3.691,0-6.563-2.871-6.563-6.563V499.897c0-3.486,2.871-6.563,6.563-6.563h240.771c3.486,0,6.563,2.871,6.563,6.563V624.385
		L950.574,624.385z"/>
</g>
</svg>
