<?xml version="1.0" encoding="utf-8"?>
<!-- Generator: Adobe Illustrator 16.0.0, SVG Export Plug-In . SVG Version: 6.00 Build 0)  -->
<!DOCTYPE svg PUBLIC "-//W3C//DTD SVG 1.1//EN" "http://www.w3.org/Graphics/SVG/1.1/DTD/svg11.dtd">
<svg version="1.1" id="Layer_1" xmlns="http://www.w3.org/2000/svg" xmlns:xlink="http://www.w3.org/1999/xlink" x="0px" y="0px"
	 width="1000px" height="1000px" viewBox="0 0 1000 1000" enable-background="new 0 0 1000 1000" xml:space="preserve">
<g>
	<path fill="#0B0B10" d="M276.955,414.486c1.477-10.439,2.604-20.938,4.48-31.302c10.65-58.701,52.207-98.639,111.627-100.686
		c71.544-2.458,143.305-2.588,214.838-0.012c64.671,2.33,111.508,50.217,113.527,114.91c2.148,68.696,2.148,137.559,0,206.256
		c-2.021,64.691-48.839,112.573-113.522,114.905c-71.53,2.583-143.31,2.648-214.838-0.033
		c-64.684-2.436-109.396-50.432-113.725-115.222c-0.374-5.604-1.576-11.161-2.393-16.734
		C276.955,529.207,276.955,471.844,276.955,414.486z M500.061,680.223c32.737,0,65.507,0.979,98.201-0.228
		c51.26-1.9,82.79-32.494,83.986-83.706c1.481-63.813,1.481-127.711,0-191.529c-1.196-51.201-32.747-82.507-83.986-83.597
		c-65.035-1.375-130.145-1.365-195.177,0c-50.854,1.068-82.474,31.739-83.854,82.379c-1.754,64.619-1.754,129.351,0,193.971
		c1.38,50.632,33.002,80.601,83.857,82.482C435.369,681.197,467.736,680.223,500.061,680.223z"/>
	<path fill="#0B0B10" d="M500.002,386.893c-62.778,0-113.678,50.893-113.678,113.669c0,62.781,50.897,113.677,113.678,113.677
		c62.781,0,113.676-50.896,113.676-113.676C613.678,437.786,562.782,386.893,500.002,386.893z M500.002,575.102
		c-41.167,0-74.538-33.367-74.538-74.535s33.371-74.539,74.538-74.539s74.535,33.371,74.535,74.539S541.169,575.102,500.002,575.102
		z"/>
	<path fill="#0B0B10" d="M647.357,381.706c0,14.934-12.106,27.041-27.041,27.041s-27.048-12.107-27.048-27.041
		c0-14.939,12.113-27.046,27.048-27.046C635.246,354.66,647.357,366.767,647.357,381.706z"/>
</g>
<path fill="#0B0B10" d="M-0.28,0.284v1000.563h1000.563V0.284H-0.28z M500.002,952.487c-249.589,0-451.921-202.331-451.921-451.921
	c0-249.59,202.332-451.921,451.921-451.921c249.59,0,451.922,202.332,451.922,451.922
	C951.924,750.157,749.592,952.487,500.002,952.487z"/>
</svg>
