<?xml version="1.0" encoding="utf-8"?>
<!-- Generator: Adobe Illustrator 16.0.0, SVG Export Plug-In . SVG Version: 6.00 Build 0)  -->
<!DOCTYPE svg PUBLIC "-//W3C//DTD SVG 1.1//EN" "http://www.w3.org/Graphics/SVG/1.1/DTD/svg11.dtd">
<svg version="1.1" id="Capa_1" xmlns="http://www.w3.org/2000/svg" xmlns:xlink="http://www.w3.org/1999/xlink" x="0px" y="0px"
	 width="1000px" height="1000px" viewBox="0 0 1000 1000" enable-background="new 0 0 1000 1000" xml:space="preserve">
<g>
	<g>
		<linearGradient id="SVGID_1_" gradientUnits="userSpaceOnUse" x1="154.0291" y1="783.2227" x2="845.9069" y2="91.3448">
			<stop  offset="0" style="stop-color:#13C6B9"/>
			<stop  offset="1" style="stop-color:#42D473"/>
		</linearGradient>
		<path fill="url(#SVGID_1_)" d="M936.219,213.142c0-39.093-23.497-65.502-63.007-70.493c-7.485-1.04-15.18-1.872-22.665-2.704
			c-22.25-2.703-43.253-4.991-63.423-9.357c-78.811-17.259-155.126-52.817-239.551-111.874C533.641,8.941,518.253,0,500.162,0
			c-17.884,0-33.271,8.941-47.203,18.507C340.045,96.07,238.362,135.579,133.142,142.233c-45.539,2.911-69.453,28.696-69.453,74.651
			c0,27.449,0,54.897,0,82.346v0.416c-0.208,76.315-0.208,155.126,0.624,232.896c0.208,28.904,3.951,58.848,10.813,89.208
			c16.219,71.116,53.233,135.163,113.121,195.675c74.651,75.483,168.226,133.707,285.922,177.999
			c7.901,2.911,16.428,4.575,25.369,4.575c10.813,0,21.626-2.287,31.191-6.446c6.446-2.911,13.101-5.614,19.547-8.317l0.623-0.208
			c28.488-12.269,57.809-24.953,86.505-39.926c95.654-50.53,168.019-110.21,221.252-182.574
			c47.827-64.878,72.572-130.173,75.483-199.626c0.624-13.308,1.04-27.448,1.247-43.46l1.04-128.509c0-0.832,0-1.456,0-2.288V338.74
			C936.427,296.735,936.427,254.938,936.219,213.142z M886.313,388.438c0,0.416,0,0.832,0,1.456l-1.039,128.925
			c-0.209,15.388-0.624,28.903-1.04,41.796c-2.495,59.264-24.122,115.617-65.918,172.178
			c-48.659,66.126-115.617,121.022-204.409,168.018c-26.824,14.141-55.313,26.409-82.969,38.262l-0.624,0.208
			c-6.654,2.911-13.101,5.614-19.755,8.526c-3.327,1.455-7.277,2.287-11.229,2.287c-2.911,0-5.614-0.416-7.902-1.248
			c-110.834-41.797-198.586-96.277-268.038-166.354c-52.818-53.857-85.465-110.002-99.605-171.762
			c-6.238-26.824-9.357-53.233-9.565-78.603c-0.832-77.354-0.624-156.165-0.624-232.272v-0.416c0-27.448,0-54.897,0-82.346
			c0-9.565,1.456-16.635,4.367-19.546c2.703-2.911,9.149-4.783,18.507-5.407c114.577-7.486,224.163-49.49,344.77-132.668
			c9.358-6.446,15.597-9.565,18.924-9.565c3.326,0,9.564,3.327,18.923,9.773c90.039,62.799,171.969,100.853,257.434,119.567
			c22.458,4.991,44.708,7.486,68.413,10.189c7.486,0.832,14.764,1.664,22.25,2.703c14.557,1.872,19.339,7.07,19.339,21.002
			c0,41.796,0,83.593,0,125.39L886.313,388.438z"/>
		<linearGradient id="SVGID_2_" gradientUnits="userSpaceOnUse" x1="361.2048" y1="638.6475" x2="637.9775" y2="361.8747">
			<stop  offset="0" style="stop-color:#13C6B9"/>
			<stop  offset="1" style="stop-color:#42D473"/>
		</linearGradient>
		<path fill="url(#SVGID_2_)" d="M534.681,474.527H465.02c-28.28,0-51.362-23.082-51.362-51.362s23.082-51.362,51.362-51.362
			h122.687c13.724,0,24.953-11.229,24.953-24.953c0-13.724-11.229-24.953-24.953-24.953h-62.799v-47.827
			c0-13.724-11.229-24.953-24.953-24.953c-13.725,0-24.953,11.229-24.953,24.953v47.827h-9.773
			c-55.729,0-101.269,45.332-101.269,101.269c0,55.729,45.331,101.269,101.269,101.269h69.661c28.28,0,51.361,23.081,51.361,51.361
			c0,28.281-23.081,51.362-51.361,51.362H409.914c-13.725,0-24.953,11.229-24.953,24.953c0,13.725,11.229,24.953,24.953,24.953
			h65.087v48.659c0,13.725,11.229,24.953,24.953,24.953c13.724,0,24.953-11.229,24.953-24.953v-48.659h10.604
			c0.208,0,0.416,0,0.624,0c55.105-0.623,99.813-45.955,99.813-101.269C635.949,519.858,590.617,474.527,534.681,474.527z"/>
	</g>
</g>
</svg>
