<?xml version="1.0" encoding="utf-8"?>
<!-- Generator: Adobe Illustrator 16.0.0, SVG Export Plug-In . SVG Version: 6.00 Build 0)  -->
<!DOCTYPE svg PUBLIC "-//W3C//DTD SVG 1.1//EN" "http://www.w3.org/Graphics/SVG/1.1/DTD/svg11.dtd">
<svg version="1.1" id="Capa_1" xmlns="http://www.w3.org/2000/svg" xmlns:xlink="http://www.w3.org/1999/xlink" x="0px" y="0px"
	 width="1000px" height="1000px" viewBox="0 0 1000 1000" enable-background="new 0 0 1000 1000" xml:space="preserve">
<g>
	<g>
		<linearGradient id="SVGID_1_" gradientUnits="userSpaceOnUse" x1="141.9836" y1="580.9746" x2="284.7834" y2="580.9746">
			<stop  offset="0" style="stop-color:#13C6B9"/>
			<stop  offset="1" style="stop-color:#42D473"/>
		</linearGradient>
		<path fill="url(#SVGID_1_)" d="M166.429,556.529c-13.444,0-24.445,11-24.445,24.444s11.001,24.445,24.445,24.445h93.909
			c13.444,0,24.445-11.001,24.445-24.445s-11.001-24.444-24.445-24.444H166.429z"/>
		<linearGradient id="SVGID_2_" gradientUnits="userSpaceOnUse" x1="553.677" y1="580.9746" x2="696.4758" y2="580.9746">
			<stop  offset="0" style="stop-color:#13C6B9"/>
			<stop  offset="1" style="stop-color:#42D473"/>
		</linearGradient>
		<path fill="url(#SVGID_2_)" d="M578.121,605.419h93.909c13.445,0,24.445-11.001,24.445-24.445s-11-24.444-24.445-24.444h-93.909
			c-13.444,0-24.444,11-24.444,24.444S564.677,605.419,578.121,605.419z"/>
		<linearGradient id="SVGID_3_" gradientUnits="userSpaceOnUse" x1="2.440214e-004" y1="500" x2="1000.0002" y2="500">
			<stop  offset="0" style="stop-color:#13C6B9"/>
			<stop  offset="1" style="stop-color:#42D473"/>
		</linearGradient>
		<path fill="url(#SVGID_3_)" d="M933.795,159.299H222.856c-36.464,0-66.205,29.741-66.205,66.205v95.946H48.89
			C22,321.45,0,343.451,0,370.34v421.47c0,26.89,22,48.891,48.89,48.891h745.569c26.889,0,48.89-22.001,48.89-48.891V678.55h90.446
			c36.463,0,66.205-29.741,66.205-66.205V225.3C999.796,188.837,970.258,159.299,933.795,159.299z M657.568,370.34
			c5.5,73.334,63.761,132.002,136.892,138.317V654.92c-73.335,5.5-132.003,63.76-138.317,136.891h-470.36
			c-5.5-73.334-63.761-132.002-136.892-138.316V507.231c73.335-5.5,132.002-63.761,138.317-136.891H657.568L657.568,370.34z
			 M706.457,370.34h87.798v89.224C748.217,453.453,711.754,416.582,706.457,370.34z M137.91,370.34
			c-5.908,46.038-42.779,82.705-89.225,87.797V370.34H137.91z M48.89,702.587c46.038,5.907,82.705,42.778,87.798,89.224H48.89
			V702.587z M705.235,791.607c5.908-46.038,42.779-82.705,89.225-87.798v87.798H705.235z M950.906,612.345
			c0,9.574-7.741,17.315-17.315,17.315h-90.446V370.34c0-26.89-22-48.89-48.89-48.89H205.337v-95.946
			c0-9.575,7.741-17.315,17.315-17.315h710.938c9.574,0,17.315,7.741,17.315,17.315V612.345z"/>
		<linearGradient id="SVGID_4_" gradientUnits="userSpaceOnUse" x1="330.4133" y1="581.1777" x2="512.7317" y2="581.1777">
			<stop  offset="0" style="stop-color:#13C6B9"/>
			<stop  offset="1" style="stop-color:#42D473"/>
		</linearGradient>
		<path fill="url(#SVGID_4_)" d="M400.693,605.215h41.76c11.815,0,21.39,9.574,21.39,21.39c0,11.814-9.574,21.389-21.39,21.389
			h-74.964c-13.445,0-24.445,11.001-24.445,24.445s11,24.444,24.445,24.444h29.741v19.76c0,13.445,11,24.445,24.444,24.445
			c13.445,0,24.445-11,24.445-24.445v-19.76c37.074-1.833,66.612-32.593,66.612-70.075c0-38.704-31.575-70.278-70.279-70.278h-41.76
			c-11.815,0-21.39-9.574-21.39-21.39s9.574-21.39,21.39-21.39h73.538c13.444,0,24.445-11,24.445-24.444
			c0-13.445-11.001-24.445-24.445-24.445h-28.315v-19.148c0-13.444-11-24.444-24.444-24.444c-13.445,0-24.445,11-24.445,24.444
			v19.353c-37.075,1.833-66.612,32.593-66.612,70.075C330.617,573.641,361.988,605.215,400.693,605.215z"/>
	</g>
</g>
</svg>
