<?xml version="1.0" encoding="utf-8"?>
<!-- Generator: Adobe Illustrator 16.0.0, SVG Export Plug-In . SVG Version: 6.00 Build 0)  -->
<!DOCTYPE svg PUBLIC "-//W3C//DTD SVG 1.1//EN" "http://www.w3.org/Graphics/SVG/1.1/DTD/svg11.dtd">
<svg version="1.1" id="Layer_1" xmlns="http://www.w3.org/2000/svg" xmlns:xlink="http://www.w3.org/1999/xlink" x="0px" y="0px"
	 width="1000px" height="1000px" viewBox="0 0 1000 1000" enable-background="new 0 0 1000 1000" xml:space="preserve">
<path fill="#0B0B10" d="M609.59,287.671c-24.502-5.012-43.337-8.797-69.077-8.797c-74.118,0-103.633,35.179-103.633,97.978v45.831
	h-46.473V496.8h46.473v225.447h90.435V496.8h65.934l6.296-74.117h-72.229v-35.778c0-20.103,1.896-32.66,30.77-32.66
	c10.679,0,27.636,1.88,40.203,4.398L609.59,287.671z"/>
<path fill="#0B0B10" d="M0,0.015v999.998h999.998V0.015H0z M500,951.68c-249.449,0-451.667-202.218-451.667-451.666
	C48.333,250.566,250.551,48.348,500,48.348c249.447,0,451.664,202.217,451.664,451.666C951.664,749.463,749.448,951.68,500,951.68z"
	/>
</svg>
