<svg width="125" height="34" viewBox="0 0 125 34" fill="none" xmlns="http://www.w3.org/2000/svg">
<path fill-rule="evenodd" clip-rule="evenodd" d="M17.4051 13.5372C23.3194 13.5372 28.1663 17.9001 28.6074 12.0988C28.629 11.8137 28.6401 11.5256 28.6401 11.235C28.6401 5.03008 23.61 0 17.4051 0C11.2002 0 6.17009 5.03008 6.17009 11.235C6.17009 11.5392 6.18218 11.8406 6.20591 12.1388C6.66617 17.9211 11.5044 13.5372 17.4051 13.5372Z" fill="url(#paint0_linear)"/>
<path fill-rule="evenodd" clip-rule="evenodd" d="M23.6213 33.1987C29.8263 33.1987 34.8563 28.1686 34.8563 21.9637C34.8563 17.4887 32.24 13.6247 28.4536 11.8181C26.9898 11.1197 24.6836 13.2612 22.9537 13.2612C18.1151 13.2612 21.5655 17.3981 19.9838 21.6874C19.5371 22.8987 18.3952 22.278 18.3952 23.6443C18.3952 27.507 14.3357 29.2338 17.3043 31.2559C19.1043 32.482 21.2791 33.1987 23.6213 33.1987Z" fill="url(#paint1_radial)"/>
<path fill-rule="evenodd" clip-rule="evenodd" d="M16.7604 18.3721C18.2662 19.1215 18.1644 19.1779 19.9605 19.1779C21.7036 19.1779 20.7985 22.0731 22.2707 21.3647C25.8507 19.6419 28.377 16.0772 28.6207 11.8995C27.1149 11.1501 25.4172 10.7286 23.6211 10.7286C21.1976 10.7286 18.9532 11.496 17.1179 12.801C14.4232 14.7171 16.965 14.8651 16.7604 18.3721Z" fill="url(#paint2_linear)"/>
<path fill-rule="evenodd" clip-rule="evenodd" d="M11.235 33.1985C13.5582 33.1985 15.7168 32.4934 17.5082 31.2854C20.5015 29.2671 16.6683 25.5459 16.6683 21.6642C16.6683 15.4593 17.4399 16.9907 11.235 16.9907C9.4508 16.9907 7.76373 11.1445 6.26546 11.8846C2.55321 13.7185 0 17.5428 0 21.9635C0 28.1685 5.03008 33.1985 11.235 33.1985Z" fill="url(#paint3_radial)"/>
<path fill-rule="evenodd" clip-rule="evenodd" d="M12.3863 21.9634C12.3863 21.6906 12.396 21.42 12.4152 21.1521C12.6705 17.5737 14.6247 21.9464 17.4513 20.0755C19.0398 21.618 22.2068 17.6073 22.4453 21.2101C22.4618 21.459 22.4702 21.7102 22.4702 21.9634C22.4702 25.8796 20.4664 29.3279 17.4282 31.3388C14.3901 29.3279 12.3863 25.8796 12.3863 21.9634Z" fill="url(#paint4_linear)"/>
<path fill-rule="evenodd" clip-rule="evenodd" d="M12.4391 21.3158C13.9365 22.0548 13.8496 20.4211 15.6324 20.4211C17.4463 20.4211 15.2206 18.7902 16.7375 18.0267C16.5201 14.4221 20.3151 14.526 17.4893 12.6289C15.7016 11.4288 13.5501 10.7286 11.2351 10.7286C9.42114 10.7286 7.7076 11.1585 6.19079 11.9219C6.43979 16.0508 8.91867 19.5782 12.4391 21.3158Z" fill="url(#paint5_linear)"/>
<path fill-rule="evenodd" clip-rule="evenodd" d="M22.4492 21.2765C20.9323 22.0399 19.2188 22.4698 17.4049 22.4698C15.6087 22.4698 13.911 22.0483 12.4053 21.2989C12.6176 17.6589 14.5627 14.4843 17.4279 12.5879C20.2871 14.4804 22.2302 17.6459 22.4492 21.2765V21.2765Z" fill="url(#paint6_linear)"/>
<path d="M46.116 32.7413C43.6914 32.2487 42.6339 30.5792 42.6855 27.3497C42.6855 26.2549 42.7628 25.2697 42.866 25.1876C42.9434 25.1055 43.6914 25.3518 44.491 25.7349C46.6577 26.7476 48.0763 27.1034 50.1398 27.1307C51.4811 27.1307 52.1517 27.0213 52.6676 26.6655C54.3184 25.516 53.6477 24.6402 49.9335 23.217C45.2906 21.4107 43.614 20.2065 42.6081 17.8528C41.4732 15.2801 41.9117 13.118 44.0525 10.8464C46.1676 8.57482 47.7152 8.00008 51.6616 8.00008C54.4473 8.00008 54.8858 8.05482 56.0207 8.6843C58.0068 9.75167 58.3679 10.4633 58.3164 13.2275C58.3164 14.5138 58.239 15.6359 58.1616 15.6907C58.0842 15.7728 57.6973 15.6633 57.2846 15.4443C55.6596 14.5412 52.8997 13.7749 51.2231 13.7749C49.7787 13.7475 49.3918 13.857 48.9275 14.3222C47.9473 15.3896 48.5148 15.8822 52.8223 17.8801C58.0842 20.316 60.3025 22.8339 59.9671 25.9813C59.5802 29.4023 57.5941 31.7287 54.241 32.6592C52.7965 33.0697 47.9473 33.1245 46.116 32.7413Z" fill="white"/>
<path fill-rule="evenodd" clip-rule="evenodd" d="M64.3511 24.6708C65.4172 28.5227 68.0956 31.6096 71.216 32.6121C74.0763 33.5091 77.5088 32.8232 79.9791 30.8444L81.2793 29.8155V31.1347V32.4538H84.1397H87V20.9508V9.42142L85.4138 9.6061C83.6716 9.79078 81.9034 10.635 81.6433 11.4001C81.5133 11.8223 81.3833 11.7695 80.4472 10.9516C78.4449 9.23673 77.4308 8.89375 74.4404 9.02567C72.2561 9.10482 71.528 9.23673 70.3058 9.81716C67.4715 11.1363 65.2612 13.9065 64.3511 17.2836C63.883 18.9985 63.883 22.9823 64.3511 24.6708ZM79.9641 25.0135C79.3798 25.5515 78.5564 26.1433 78.158 26.3585C77.3877 26.762 75.2362 27.1386 74.7581 26.9503C74.6253 26.8965 74.1738 26.7889 73.7488 26.7082C72.8457 26.493 71.0396 24.879 70.4287 23.7492C70.163 23.2112 70.0037 22.2159 70.0037 21.0323C69.9771 19.4452 70.0834 18.961 70.7208 17.885C72.7395 14.388 77.1221 14.0114 80.0704 17.078L81 18.0464V21.0592V24.072L79.9641 25.0135Z" fill="white"/>
<path d="M99.2311 31.2861C99.071 30.863 97.3901 26.4997 95.5224 21.5547C93.6546 16.6097 91.867 11.9291 91.5468 11.1622C90.6396 8.88803 90.6129 8.88803 93.4145 9.07314C96.3495 9.25825 97.8437 9.97224 98.8042 11.7175C99.1511 12.3258 100.192 15.2875 101.126 18.3285C102.059 21.3432 102.913 23.8024 102.993 23.8024C103.1 23.8024 103.26 23.538 103.34 23.2207C103.927 20.6027 106.889 11.8762 107.422 11.1622C108.49 9.81357 109.957 9.20536 112.652 9.0467C114.386 8.96736 115 8.99381 115 9.2318C115 9.41691 114.52 10.7656 113.959 12.2464C112.705 15.4726 110.251 21.8985 108.943 25.3891C108.436 26.7642 107.663 28.8268 107.209 29.9639L106.409 32.0001H102.967H99.5246L99.2311 31.2861Z" fill="white"/>
<path d="M119 16.0001V8.39233e-05H120.722C122.548 8.39233e-05 123.174 0.211654 124.296 1.26951L125 1.95711V16.9786V32.0001H122H119V16.0001Z" fill="white"/>
<defs>
<linearGradient id="paint0_linear" x1="28.6401" y1="15.1291" x2="28.6401" y2="0" gradientUnits="userSpaceOnUse">
<stop stop-color="#396BEE"/>
<stop offset="1" stop-color="#47B9FF"/>
</linearGradient>
<radialGradient id="paint1_radial" cx="0" cy="0" r="1" gradientUnits="userSpaceOnUse" gradientTransform="translate(25.7962 33.1987) rotate(90) scale(21.5206 18.6379)">
<stop stop-color="#FDA721"/>
<stop offset="1" stop-color="#FFC21A"/>
</radialGradient>
<linearGradient id="paint2_linear" x1="16.5479" y1="11.0586" x2="17.105" y2="20.6774" gradientUnits="userSpaceOnUse">
<stop stop-color="#6FD457"/>
<stop offset="1" stop-color="#329423"/>
</linearGradient>
<radialGradient id="paint3_radial" cx="0" cy="0" r="1" gradientUnits="userSpaceOnUse" gradientTransform="translate(9.08648 31.3569) rotate(90) scale(21.3787 18.651)">
<stop stop-color="#DA2C25"/>
<stop offset="1" stop-color="#FF596C"/>
</radialGradient>
<linearGradient id="paint4_linear" x1="12.3863" y1="19.6575" x2="12.3863" y2="31.3388" gradientUnits="userSpaceOnUse">
<stop stop-color="#FA933C"/>
<stop offset="1" stop-color="#F45A1C"/>
</linearGradient>
<linearGradient id="paint5_linear" x1="6.19079" y1="10.7286" x2="6.19079" y2="21.5077" gradientUnits="userSpaceOnUse">
<stop stop-color="#D855F2"/>
<stop offset="1" stop-color="#9926BD"/>
</linearGradient>
<linearGradient id="paint6_linear" x1="22.4492" y1="22.4698" x2="22.4492" y2="12.5879" gradientUnits="userSpaceOnUse">
<stop stop-color="#163970"/>
<stop offset="1" stop-color="#3B57C4"/>
</linearGradient>
</defs>
</svg>
